<svg width="1000" height="1000" viewBox="0 0 1000 1000" fill="none" xmlns="http://www.w3.org/2000/svg">
<path d="M608.907 673.062C609.519 678.947 610.847 686.124 613.248 693.293C614.91 698.254 617.284 703.804 620.689 709.042C588.407 774.964 549.126 853.97 523.656 904.91C516.823 915.91 496.756 934.81 471.156 922.41C445.557 910.01 449.156 883.577 454.156 871.91L567.156 635.91H573.387L608.907 673.062ZM629.156 879.41C631.323 889.41 629.856 911.51 606.656 919.91C583.457 928.31 568.99 919.077 564.656 913.41L548.656 888.91L592.656 799.91L629.156 879.41ZM559.458 621.343L488.156 767.91C479.656 756.243 462.957 728.81 464.156 712.41C465.656 691.911 468.656 690.91 472.656 684.41C475.856 679.21 494.323 635.243 503.156 613.91C514.286 611.085 528.557 607.534 542.871 603.994L559.458 621.343ZM642.05 554.428C657.144 573.235 667.466 588.249 674.014 598.884C678.808 606.671 681.58 612.109 682.719 614.967C684 615.054 686.291 615.257 688.93 615.571C689.764 615.671 690.633 615.78 691.516 615.902C691.9 615.955 692.286 616.011 692.674 616.068C694.039 616.271 695.416 616.5 696.729 616.756C699.779 617.351 703.542 619.343 707.78 622.546C708.29 622.931 708.806 623.335 709.329 623.755C709.833 624.159 710.343 624.58 710.858 625.017C711.174 625.283 711.491 625.556 711.811 625.835C712.117 626.102 712.426 626.375 712.736 626.653C713.191 627.061 713.652 627.48 714.114 627.91C715.625 629.316 717.174 630.841 718.753 632.479C720.452 634.242 722.186 636.135 723.944 638.151C724.953 639.308 725.966 640.618 726.948 642.063C727.181 642.405 727.41 642.756 727.639 643.112C731.408 648.998 734.589 656.89 735.137 665.782C735.23 667.296 735.248 668.84 735.179 670.407C735.151 671.034 735.11 671.665 735.054 672.3C735.004 672.858 734.943 673.42 734.871 673.983C734.835 674.264 734.797 674.545 734.755 674.826C734.736 674.95 734.717 675.075 734.697 675.199C734.616 675.715 734.524 676.234 734.423 676.754C734.367 677.04 734.308 677.326 734.246 677.613C732.825 684.182 729.749 691.019 724.354 697.8C723.897 698.375 723.424 698.951 722.933 699.525C722.886 699.58 722.838 699.634 722.791 699.688C722.483 700.045 722.169 700.402 721.849 700.759C721.244 701.431 720.615 702.102 719.962 702.771C719.601 703.141 719.233 703.511 718.857 703.88C718.771 703.965 718.683 704.049 718.596 704.134C717.615 705.087 716.584 706.038 715.499 706.984L714.785 707.601C713.241 708.92 711.708 710.141 710.188 711.27C709.838 711.53 709.489 711.785 709.141 712.035C708.87 712.229 708.601 712.42 708.331 712.608C707.905 712.906 707.479 713.196 707.055 713.479C706.742 713.688 706.43 713.892 706.118 714.093C705.967 714.191 705.816 714.289 705.665 714.385C704.877 714.885 704.092 715.36 703.311 715.812C701.369 716.934 699.451 717.91 697.557 718.75C697.234 718.893 696.912 719.032 696.591 719.167C678.547 726.765 662.728 722.11 650.07 715.05C649.769 714.882 649.469 714.712 649.171 714.541C648.735 714.291 648.303 714.04 647.875 713.785C647.183 713.373 646.501 712.956 645.829 712.534C645.028 712.031 644.242 711.522 643.471 711.011C642.884 710.622 642.305 710.231 641.736 709.84C641.506 709.682 641.278 709.519 641.053 709.354C639.728 708.379 638.498 707.279 637.354 706.08C626.901 695.131 623.723 675.84 623.494 666.613L559.606 599.793C560.325 599.637 561.041 599.482 561.755 599.325C572.371 596.999 582.49 594.666 590.7 592.565C598.059 590.683 605.386 588.631 609.751 586.62L610.164 586.425C620.491 581.452 627.274 573.047 633.473 565.007C636.059 561.652 638.755 558.051 641.807 554.126C641.888 554.227 641.969 554.327 642.05 554.428ZM477.493 535.615C474.549 538.9 471.556 542.522 468.895 546.394C467.002 549.081 465.383 551.784 464.114 554.474C461.582 559.633 459.952 565.085 459.952 570.664L460.242 573.712C460.251 576.853 460.557 579.784 461.078 582.494L461.452 586.425C463.952 594.664 469.164 602.805 476.958 606.769C478.668 607.638 480.421 608.37 482.173 608.985L487.656 611.91L464.656 670.41C458.823 680.077 441.256 697.01 417.656 687.41C394.057 677.81 397.49 649.41 402.156 636.41L431.462 555.054C442.022 553.111 452.215 548.396 460.895 540.827L472.663 530.563L477.493 535.615ZM390.416 443.582C385.486 448.792 382.714 453.289 381.156 459.91C379.556 466.711 368.823 501.744 363.656 518.41C363.397 519.619 363.302 521.561 363.879 523.375L363.68 523.55L364.141 524.078C364.625 525.199 365.41 526.222 366.625 526.928L373.538 534.855C384.955 547.948 400.666 555.079 416.74 555.98C407.183 581.973 397.345 608.557 390.156 627.91C382.989 628.41 366.256 626.21 356.656 613.41C347.057 600.611 345.323 587.744 345.656 582.91V401.41C345.899 399.071 346.209 396.339 346.583 393.317L390.416 443.582ZM530.131 590.669C518.299 593.089 507.181 595.28 498.656 596.91C496.654 596.868 494.157 596.616 491.544 596.06C491.154 595.977 490.763 595.884 490.369 595.787C488.722 595.382 487.051 594.855 485.45 594.181C485.196 594.073 484.942 593.963 484.691 593.849C483.805 593.443 482.946 592.989 482.13 592.484C481.997 592.402 481.866 592.319 481.735 592.234C481.506 592.085 481.28 591.933 481.059 591.775C480.88 591.648 480.705 591.517 480.532 591.385C480.019 590.991 479.531 590.572 479.073 590.127C478.926 589.984 478.782 589.838 478.642 589.689C478.198 589.22 477.788 588.723 477.416 588.197C477.302 588.036 477.192 587.872 477.085 587.705C477.016 587.597 476.949 587.487 476.883 587.376C476.151 586.148 475.619 584.776 475.35 583.243C475.282 582.86 475.233 582.467 475.199 582.063C475.155 581.53 475.138 580.979 475.156 580.41L475.186 579.662C475.206 579.22 475.232 578.779 475.264 578.341C475.271 578.236 475.279 578.132 475.287 578.027C475.358 577.116 475.453 576.214 475.57 575.321C477.09 563.754 482.342 553.775 487.952 546.648C487.966 546.631 487.979 546.614 487.992 546.597L530.131 590.669ZM577.294 477.328C593.247 495.906 613.777 520.059 632.076 542.226V542.227C619.805 557.737 613.906 567.671 604.284 572.599L603.656 572.91C597.322 575.96 572.794 581.679 547.438 587.065L498.674 536.063C507.524 528.799 519.819 520.515 527.656 516.41L529.336 515.536C538.238 510.934 554.312 503.004 561.656 499.41C565.824 493.551 571.568 485.448 577.294 477.328ZM687.156 503.91C685.96 521.724 682.914 556.544 678.891 578.84C672.098 568.82 663.275 556.802 652.125 543.02C666.363 526.899 680.388 511.061 687.156 503.91ZM576.663 357.724C593.692 377.251 591.666 406.887 572.139 423.916L559.595 434.854L547.912 445.04L547.913 445.041L535.139 456.18L523.168 466.618V466.619L451.035 529.521L450.576 529.917C446.628 533.273 442.278 535.862 437.714 537.698L437.716 537.695C432.732 539.701 427.491 540.807 422.229 541.031C422.229 541.032 422.228 541.033 422.228 541.034C408.476 541.62 394.593 536.178 384.843 524.997L576.663 357.724ZM404.656 132.91C409.156 128.41 470.156 107.91 518.656 109.91C567.156 111.91 625.155 121.91 638.656 129.91C649.456 136.31 648.156 150.91 646.156 157.41L634.156 261.91C633.323 267.744 632.157 280.91 634.156 286.91C636.657 294.411 667.156 335.911 676.656 362.91C686.156 389.91 705.156 429.41 700.656 458.41C696.158 487.397 673.177 496.403 648.189 523.375L648.156 523.41C647.663 523.943 647.177 524.473 646.698 524.997C646.535 525.176 646.372 525.354 646.21 525.532C645.87 525.907 645.533 526.279 645.2 526.648C645.071 526.792 644.942 526.934 644.814 527.077C644.341 527.605 643.876 528.129 643.417 528.647C643.34 528.734 643.264 528.821 643.188 528.907C642.724 529.433 642.267 529.954 641.817 530.471L638.255 526.173C622.731 507.477 606.138 487.931 592.345 471.836L586.191 464.668C587.7 462.511 589.137 460.45 590.465 458.538C590.704 458.194 590.94 457.855 591.172 457.521C591.646 456.837 592.103 456.175 592.544 455.537C592.754 455.233 592.96 454.934 593.162 454.641C593.503 454.146 593.832 453.667 594.147 453.207C594.414 452.818 594.671 452.442 594.919 452.079C595.242 451.606 595.549 451.156 595.837 450.73C596.065 450.394 596.28 450.073 596.484 449.769C597.139 448.795 597.672 447.992 598.059 447.386C598.14 447.259 598.214 447.14 598.282 447.03C598.326 446.96 598.369 446.895 598.407 446.833L598.656 446.41C601.156 441.91 600.656 437.91 596.656 435.41C593.456 433.411 589.323 434.577 587.656 435.41L578.656 446.41C577.027 445.672 574.991 444.644 572.677 443.347L581.997 435.221L582.597 434.691C607.61 412.315 610.226 374.044 588.49 348.472L587.969 347.865L578.109 336.56L522.332 385.197C518.363 375.791 515.789 367.528 514.656 362.91C514.323 352.41 515.799 329.41 518.656 319.41C520.656 312.411 516.156 308.91 513.656 308.41C511.156 307.91 505.633 308.509 503.656 316.91C502.402 322.24 500.166 342.702 500.89 361.046C469.317 324.479 430.39 279.424 394.632 238.09L402.656 141.41C401.823 140.076 401.057 136.51 404.656 132.91ZM556.604 453.393C559.415 456.616 563.012 460.765 567.199 465.612C561.744 473.359 556.085 481.353 551.63 487.625C542.842 491.943 528.212 499.186 520.696 503.123L519.533 503.742C513.62 506.947 506.278 511.694 499.531 516.539C495.739 519.262 491.831 522.236 488.283 525.194L481.909 518.528L556.604 453.393ZM418.479 475.763L382.302 507.31C386.219 494.944 391.089 479.04 394.156 468.91C394.989 465.371 397.005 459.346 400.059 454.641L418.479 475.763ZM251.322 110.515C260.869 115.402 269.8 120.698 275.612 125.18C276.244 125.667 276.841 126.143 277.396 126.609C277.953 127.077 278.469 127.535 278.941 127.979C279.246 128.265 279.535 128.545 279.803 128.82L280.189 129.231C280.462 129.528 280.83 129.938 281.291 130.453C288.791 138.832 320.696 175.586 360.191 221.21C370.334 232.927 380.976 245.231 391.836 257.787C392.189 258.195 392.543 258.604 392.896 259.013C434.099 306.654 478.273 357.795 509.923 394.463L509.924 394.464C510.842 395.527 511.75 396.579 512.646 397.617L444.503 457.04L431.751 468.161L408.599 441.611L402.1 434.158L307.199 325.333L309.433 321.984C312.569 317.281 315.541 310.948 316.385 302.086C316.67 299.096 316.565 295.612 315.362 291.812C314.2 288.139 312.284 285.037 310.146 282.343C306.453 277.692 300.782 272.701 293.354 266.687L291.846 265.47C278.505 254.754 269.463 241.301 257.858 214.829L256.727 212.227C256.308 211.255 255.593 208.417 255.195 203.076C254.825 198.091 254.804 192.105 255.029 185.669C255.48 172.813 256.868 159.253 257.86 150.32C259.174 138.495 256.888 124.957 252.533 113.516C252.158 112.529 251.754 111.527 251.322 110.515ZM270.66 201.413C283.449 228.637 296.129 247.989 299.22 252.896C302.129 257.085 309.365 265.736 311.291 267.59L435.127 409.599L454.424 392.771C411.743 343.615 325.564 244.408 322.288 240.821C318.2 236.346 307.747 227.552 299.647 221.457C293.71 216.989 278.02 205.595 270.66 201.413ZM165 80C166.368 80.2242 167.834 80.507 169.381 80.8389C176.621 82.7803 186.225 85.4584 195.468 88.2471C205.654 91.5899 215.843 95.2975 223.586 98.2646C236.452 105.658 244.896 131.173 242.952 148.664C240.952 166.664 237.182 204.777 242.952 218.164C255.452 247.164 265.835 263.816 282.452 277.164C299.069 290.512 302.024 294.664 301.452 300.664C300.884 306.633 298.971 310.621 296.982 313.616L294.649 310.941L192.952 190.664C189.005 179.933 181.701 159.126 176.872 142.71C175.018 135.748 173.173 128.114 171.434 119.841C168.754 105.393 166.149 88.1515 165 80Z" fill="white"/>
<path d="M700.656 458.41C705.156 429.41 686.156 389.91 676.656 362.91L598.656 446.41C596.656 450.01 573.156 483.243 561.656 499.41C553.823 503.243 536.056 512.01 527.656 516.41C517.156 521.91 498.656 534.91 491.156 542.91C483.656 550.91 475.656 564.41 475.156 580.41C474.756 593.21 490.656 596.743 498.656 596.91C529.156 591.077 592.856 578.11 603.656 572.91C617.156 566.41 623.156 550.41 648.156 523.41C673.156 496.41 696.156 487.41 700.656 458.41Z" fill="white"/>
<path d="M297.535 395.664C300.035 412.664 285.535 424.664 271.535 424.664C257.535 424.664 243.535 411.164 242.535 394.664C241.535 378.164 249.535 355.664 271.535 341.164C275.035 372.164 295.035 378.664 297.535 395.664Z" fill="white"/>
</svg>
